<svg xmlns="http://www.w3.org/2000/svg" width="16" height="16" class="bi bi-robot" viewBox="0 0 16 16">
  <path fill="#FF69B4" d="M6 12.5a.5.5 0 0 1 .5-.5h3a.5.5 0 0 1 0 1h-3a.5.5 0 0 1-.5-.5ZM.905 5.125A.5.5 0 0 1 1.5 4h13a.5.5 0 0 1 .5.5c0 .618-.306 1.093-.856 1.546L12 8.814V9a.5.5 0 0 1-.5.5h-1a.5.5 0 0 1-.5-.5v-.524l-1.479-1.124L9.5 8.5V14a.5.5 0 0 1-.5.5h-2a.5.5 0 0 1-.5-.5V8.5l-1.44-1.152L3 7.477V9a.5.5 0 0 1-.5.5h-1A.5.5 0 0 1 1.5 9v-.186L.856 6.546C.306 6.093 0 5.618 0 5A.5.5 0 0 1 .905 5.125ZM3 10.5a.5.5 0 0 1 .5-.5h9a.5.5 0 0 1 0 1h-9a.5.5 0 0 1-.5-.5Zm1.5-2a.5.5 0 0 1 .5-.5h5a.5.5 0 0 1 0 1h-5a.5.5 0 0 1-.5-.5Z"/>
</svg>
